# xmcd CD database file
#
# Track frame offsets:
#	150
#	24212
#	48274
#
# Disc length: 829 seconds
#
# Revision: 2
# Processed by: cddbd v1.5.2PL0 Copyright (c) Steve Scherf et al.
# Submitted via: CDex 1.70beta3
#
DISCID=16033b03
DTITLE=KOTOKO - La Clef ～迷宮の鍵～
DYEAR=2007
DGENRE=Ballad
TTITLE0=La Clef ～迷宮の鍵～
TTITLE1=La Clef ～迷宮の鍵～ - Instrumental ver. -
TTITLE2=La Clef ～迷宮の鍵～ - Short ver. -
EXTD=YEAR: 2007
EXTT0=
EXTT1=
EXTT2=
PLAYORDER=
